<?xml version="1.0" encoding="UTF-8"?>
<svg width="24mm" height="24mm" version="1.1" viewBox="0 0 24 24" xmlns="http://www.w3.org/2000/svg" xmlns:cc="http://creativecommons.org/ns#" xmlns:dc="http://purl.org/dc/elements/1.1/" xmlns:rdf="http://www.w3.org/1999/02/22-rdf-syntax-ns#">
 <metadata>
  <rdf:RDF>
   <cc:Work rdf:about="">
    <dc:format>image/svg+xml</dc:format>
    <dc:type rdf:resource="http://purl.org/dc/dcmitype/StillImage"/>
    <dc:title/>
   </cc:Work>
  </rdf:RDF>
 </metadata>
 <g transform="matrix(.94488 0 0 .97188 1.4506 .46457)" fill="#fff" stroke-width=".26458" aria-label="MX">
  <path d="m-1.5352 18.043v-12.347h3.5278v1.7639h1.7639v1.7639h1.7639v-1.7639h1.7639v-1.7639h3.5278v12.347h-3.5278v-7.0556h-1.7639v3.5278h-1.7639v-3.5278h-1.7639v7.0556z"/>
  <path d="m11.518 18.043v-3.5278h1.7639v-1.7639h1.7639v-1.7639h-1.7639v-1.7639h-1.7639v-3.5278h3.5278v3.5278h1.7639v1.7639h1.7639v-1.7639h1.7639v-3.5278h3.5278v3.5278h-1.7639v1.7639h-1.7639v1.7639h1.7639v1.7639h1.7639v3.5278h-3.5278v-3.5278h-1.7639v-1.7639h-1.7639v1.7639h-1.7639v3.5278z"/>
 </g>
</svg>
