<svg xmlns="http://www.w3.org/2000/svg" id="svg8" viewBox="0 0 8 10"><g><path transform="scale(0.26458333)" d="M 7.5585938 0 L 7.5585938 3.7792969 L 3.7792969 3.7792969 L 3.7792969 7.5585938 L 0 7.5585938 L 0 11.337891 L 0 15.117188 L 0 18.898438 L 3.7792969 18.898438 L 3.7792969 22.677734 L 7.5585938 22.677734 L 7.5585938 26.457031 L 11.337891 26.457031 L 15.117188 26.457031 L 18.898438 26.457031 L 22.677734 26.457031 L 22.677734 22.677734 L 26.457031 22.677734 L 26.457031 18.898438 L 30.236328 18.898438 L 30.236328 15.117188 L 30.236328 11.337891 L 30.236328 7.5585938 L 26.457031 7.5585938 L 26.457031 3.7792969 L 22.677734 3.7792969 L 22.677734 0 L 18.898438 0 L 15.117188 0 L 11.337891 0 L 7.5585938 0 z " class="medal-icon-colour" /><path d="M 0,10 H 2 V 8 H 0 Z M 1,9.0000894 h 2 v -2 H 1 Z" style="fill:#fff"/><path style="fill:#fff" d="m 8.0000001,9.9999105 h -2 V 7.9999106 h 2 z M 7.0000001,9 H 5 V 7 h 2.0000001 z" /></g></svg>
